<mxfile host="app.diagrams.net" modified="2022-07-21T20:33:49.219Z" agent="5.0 (Windows NT 10.0; Win64; x64) AppleWebKit/537.36 (KHTML, like Gecko) Chrome/102.0.5005.115 Safari/537.36 OPR/88.0.4412.75 (Edition std-1)" etag="lBA5lkjC6uOIU3LdbQ22" version="20.1.4" type="gitlab">
  <diagram id="R2lEEEUBdFMjLlhIrx00" name="Page-1">
    <mxGraphModel dx="1381" dy="833" grid="1" gridSize="10" guides="1" tooltips="1" connect="1" arrows="1" fold="1" page="1" pageScale="1" pageWidth="850" pageHeight="1100" math="0" shadow="0" extFonts="Permanent Marker^https://fonts.googleapis.com/css?family=Permanent+Marker">
      <root>
        <mxCell id="0" />
        <mxCell id="1" parent="0" />
        <mxCell id="8abuVMsNj_OX8waBKSKv-2" value="Cliente" style="swimlane;horizontal=0;" vertex="1" parent="1">
          <mxGeometry width="850" height="200" as="geometry" />
        </mxCell>
        <mxCell id="8abuVMsNj_OX8waBKSKv-4" value="Usuário" style="shape=umlActor;verticalLabelPosition=bottom;verticalAlign=top;html=1;outlineConnect=0;" vertex="1" parent="8abuVMsNj_OX8waBKSKv-2">
          <mxGeometry x="85" y="60" width="30" height="60" as="geometry" />
        </mxCell>
        <mxCell id="8abuVMsNj_OX8waBKSKv-5" value="Aplicação" style="swimlane;horizontal=0;" vertex="1" parent="1">
          <mxGeometry y="200" width="850" height="390" as="geometry" />
        </mxCell>
        <mxCell id="8abuVMsNj_OX8waBKSKv-11" value="Login" style="rounded=0;whiteSpace=wrap;html=1;" vertex="1" parent="8abuVMsNj_OX8waBKSKv-5">
          <mxGeometry x="40" y="60" width="120" height="60" as="geometry" />
        </mxCell>
        <mxCell id="8abuVMsNj_OX8waBKSKv-15" value="Salvar &quot;uid&quot; no sharedpreferences" style="rounded=0;whiteSpace=wrap;html=1;" vertex="1" parent="8abuVMsNj_OX8waBKSKv-5">
          <mxGeometry x="250" y="290" width="120" height="60" as="geometry" />
        </mxCell>
        <mxCell id="8abuVMsNj_OX8waBKSKv-23" style="edgeStyle=orthogonalEdgeStyle;rounded=0;orthogonalLoop=1;jettySize=auto;html=1;entryX=0.342;entryY=0;entryDx=0;entryDy=0;entryPerimeter=0;" edge="1" parent="8abuVMsNj_OX8waBKSKv-5" source="8abuVMsNj_OX8waBKSKv-19" target="8abuVMsNj_OX8waBKSKv-22">
          <mxGeometry relative="1" as="geometry">
            <Array as="points">
              <mxPoint x="521" y="150" />
              <mxPoint x="521" y="150" />
            </Array>
          </mxGeometry>
        </mxCell>
        <mxCell id="8abuVMsNj_OX8waBKSKv-19" value="Tela Inicial" style="rounded=0;whiteSpace=wrap;html=1;" vertex="1" parent="8abuVMsNj_OX8waBKSKv-5">
          <mxGeometry x="480" y="60" width="120" height="60" as="geometry" />
        </mxCell>
        <mxCell id="8abuVMsNj_OX8waBKSKv-35" style="edgeStyle=orthogonalEdgeStyle;rounded=0;orthogonalLoop=1;jettySize=auto;html=1;entryX=0.667;entryY=1;entryDx=0;entryDy=0;entryPerimeter=0;" edge="1" parent="8abuVMsNj_OX8waBKSKv-5" source="8abuVMsNj_OX8waBKSKv-22" target="8abuVMsNj_OX8waBKSKv-19">
          <mxGeometry relative="1" as="geometry">
            <Array as="points">
              <mxPoint x="560" y="200" />
              <mxPoint x="560" y="200" />
            </Array>
          </mxGeometry>
        </mxCell>
        <mxCell id="8abuVMsNj_OX8waBKSKv-22" value="Reperar &quot;uid&quot;" style="rounded=0;whiteSpace=wrap;html=1;" vertex="1" parent="8abuVMsNj_OX8waBKSKv-5">
          <mxGeometry x="480" y="230" width="120" height="60" as="geometry" />
        </mxCell>
        <mxCell id="8abuVMsNj_OX8waBKSKv-31" style="edgeStyle=orthogonalEdgeStyle;rounded=0;orthogonalLoop=1;jettySize=auto;html=1;entryX=1;entryY=0.5;entryDx=0;entryDy=0;" edge="1" parent="8abuVMsNj_OX8waBKSKv-5" source="8abuVMsNj_OX8waBKSKv-30" target="8abuVMsNj_OX8waBKSKv-11">
          <mxGeometry relative="1" as="geometry">
            <Array as="points">
              <mxPoint x="175" y="90" />
            </Array>
          </mxGeometry>
        </mxCell>
        <mxCell id="8abuVMsNj_OX8waBKSKv-30" value="Erro de &lt;br&gt;autenticação" style="shape=parallelogram;perimeter=parallelogramPerimeter;whiteSpace=wrap;html=1;fixedSize=1;" vertex="1" parent="8abuVMsNj_OX8waBKSKv-5">
          <mxGeometry x="115" y="190" width="120" height="60" as="geometry" />
        </mxCell>
        <mxCell id="8abuVMsNj_OX8waBKSKv-7" value="Base de Dados" style="swimlane;horizontal=0;" vertex="1" parent="1">
          <mxGeometry y="590" width="850" height="250" as="geometry" />
        </mxCell>
        <mxCell id="8abuVMsNj_OX8waBKSKv-9" value="BD" style="shape=cylinder3;whiteSpace=wrap;html=1;boundedLbl=1;backgroundOutline=1;size=15;" vertex="1" parent="8abuVMsNj_OX8waBKSKv-7">
          <mxGeometry x="395" y="30" width="60" height="80" as="geometry" />
        </mxCell>
        <mxCell id="8abuVMsNj_OX8waBKSKv-21" value="BD" style="shape=cylinder3;whiteSpace=wrap;html=1;boundedLbl=1;backgroundOutline=1;size=15;" vertex="1" parent="8abuVMsNj_OX8waBKSKv-7">
          <mxGeometry x="510" y="30" width="60" height="80" as="geometry" />
        </mxCell>
        <mxCell id="8abuVMsNj_OX8waBKSKv-8" value="Firebase" style="swimlane;horizontal=0;" vertex="1" parent="1">
          <mxGeometry y="840" width="850" height="260" as="geometry" />
        </mxCell>
        <mxCell id="8abuVMsNj_OX8waBKSKv-27" style="edgeStyle=orthogonalEdgeStyle;rounded=0;orthogonalLoop=1;jettySize=auto;html=1;entryX=0.5;entryY=1;entryDx=0;entryDy=0;" edge="1" parent="8abuVMsNj_OX8waBKSKv-8" source="8abuVMsNj_OX8waBKSKv-10" target="8abuVMsNj_OX8waBKSKv-26">
          <mxGeometry relative="1" as="geometry" />
        </mxCell>
        <mxCell id="8abuVMsNj_OX8waBKSKv-10" value="Firestore" style="shape=cylinder3;whiteSpace=wrap;html=1;boundedLbl=1;backgroundOutline=1;size=15;" vertex="1" parent="8abuVMsNj_OX8waBKSKv-8">
          <mxGeometry x="85" y="120" width="60" height="80" as="geometry" />
        </mxCell>
        <mxCell id="8abuVMsNj_OX8waBKSKv-26" value="Login com Sucesso?" style="rhombus;whiteSpace=wrap;html=1;" vertex="1" parent="8abuVMsNj_OX8waBKSKv-8">
          <mxGeometry x="200" y="20" width="80" height="80" as="geometry" />
        </mxCell>
        <mxCell id="8abuVMsNj_OX8waBKSKv-12" style="edgeStyle=orthogonalEdgeStyle;rounded=0;orthogonalLoop=1;jettySize=auto;html=1;entryX=0.5;entryY=0;entryDx=0;entryDy=0;" edge="1" parent="1" source="8abuVMsNj_OX8waBKSKv-4" target="8abuVMsNj_OX8waBKSKv-11">
          <mxGeometry relative="1" as="geometry" />
        </mxCell>
        <mxCell id="8abuVMsNj_OX8waBKSKv-14" style="edgeStyle=orthogonalEdgeStyle;rounded=0;orthogonalLoop=1;jettySize=auto;html=1;" edge="1" parent="1" source="8abuVMsNj_OX8waBKSKv-11" target="8abuVMsNj_OX8waBKSKv-10">
          <mxGeometry relative="1" as="geometry">
            <Array as="points">
              <mxPoint x="100" y="750" />
              <mxPoint x="100" y="750" />
            </Array>
          </mxGeometry>
        </mxCell>
        <mxCell id="8abuVMsNj_OX8waBKSKv-17" value="Sim" style="edgeStyle=orthogonalEdgeStyle;rounded=0;orthogonalLoop=1;jettySize=auto;html=1;entryX=0.5;entryY=1;entryDx=0;entryDy=0;entryPerimeter=0;exitX=1;exitY=0.5;exitDx=0;exitDy=0;" edge="1" parent="1" source="8abuVMsNj_OX8waBKSKv-26" target="8abuVMsNj_OX8waBKSKv-9">
          <mxGeometry x="-0.8841" y="-10" relative="1" as="geometry">
            <mxPoint x="170" y="930" as="targetPoint" />
            <Array as="points">
              <mxPoint x="425" y="900" />
            </Array>
            <mxPoint as="offset" />
          </mxGeometry>
        </mxCell>
        <mxCell id="8abuVMsNj_OX8waBKSKv-18" value="Salvar detalhes no BD Local" style="edgeLabel;html=1;align=center;verticalAlign=middle;resizable=0;points=[];" vertex="1" connectable="0" parent="8abuVMsNj_OX8waBKSKv-17">
          <mxGeometry x="0.4585" y="1" relative="1" as="geometry">
            <mxPoint x="1" y="-43" as="offset" />
          </mxGeometry>
        </mxCell>
        <mxCell id="8abuVMsNj_OX8waBKSKv-24" style="edgeStyle=orthogonalEdgeStyle;rounded=0;orthogonalLoop=1;jettySize=auto;html=1;" edge="1" parent="1" source="8abuVMsNj_OX8waBKSKv-22" target="8abuVMsNj_OX8waBKSKv-21">
          <mxGeometry relative="1" as="geometry">
            <Array as="points">
              <mxPoint x="520" y="550" />
              <mxPoint x="520" y="550" />
            </Array>
          </mxGeometry>
        </mxCell>
        <mxCell id="8abuVMsNj_OX8waBKSKv-28" style="edgeStyle=orthogonalEdgeStyle;rounded=0;orthogonalLoop=1;jettySize=auto;html=1;entryX=0.5;entryY=1;entryDx=0;entryDy=0;" edge="1" parent="1" source="8abuVMsNj_OX8waBKSKv-26" target="8abuVMsNj_OX8waBKSKv-15">
          <mxGeometry relative="1" as="geometry">
            <Array as="points">
              <mxPoint x="310" y="900" />
            </Array>
          </mxGeometry>
        </mxCell>
        <mxCell id="8abuVMsNj_OX8waBKSKv-29" value="Não" style="edgeStyle=orthogonalEdgeStyle;rounded=0;orthogonalLoop=1;jettySize=auto;html=1;entryX=0.5;entryY=1;entryDx=0;entryDy=0;" edge="1" parent="1" source="8abuVMsNj_OX8waBKSKv-26" target="8abuVMsNj_OX8waBKSKv-30">
          <mxGeometry x="-0.9579" y="10" relative="1" as="geometry">
            <mxPoint x="170" y="460" as="targetPoint" />
            <Array as="points">
              <mxPoint x="175" y="900" />
            </Array>
            <mxPoint as="offset" />
          </mxGeometry>
        </mxCell>
        <mxCell id="8abuVMsNj_OX8waBKSKv-33" style="edgeStyle=orthogonalEdgeStyle;rounded=0;orthogonalLoop=1;jettySize=auto;html=1;entryX=0;entryY=0.5;entryDx=0;entryDy=0;" edge="1" parent="1" source="8abuVMsNj_OX8waBKSKv-26" target="8abuVMsNj_OX8waBKSKv-19">
          <mxGeometry relative="1" as="geometry" />
        </mxCell>
        <mxCell id="8abuVMsNj_OX8waBKSKv-34" style="edgeStyle=orthogonalEdgeStyle;rounded=0;orthogonalLoop=1;jettySize=auto;html=1;entryX=0.617;entryY=0.983;entryDx=0;entryDy=0;entryPerimeter=0;" edge="1" parent="1" source="8abuVMsNj_OX8waBKSKv-21" target="8abuVMsNj_OX8waBKSKv-22">
          <mxGeometry relative="1" as="geometry">
            <Array as="points">
              <mxPoint x="554" y="590" />
              <mxPoint x="554" y="590" />
            </Array>
          </mxGeometry>
        </mxCell>
      </root>
    </mxGraphModel>
  </diagram>
</mxfile>
